#!OML:ASF E:\id_vita\Project 1\Capture day 1\Session 1\Female.ASF
:FULLY-SPECIFIED
:DEGREES
1394
root 6.03388 20.5983 -1.18118 59.0326 202.742 -7.52558
lowerback 14.8157 -1.72855 -6.45546
upperback 8.33045 -3.93258 2.61683
thorax 1.18376 -2.6035 6.92617
lowerneck -0.762744 -12.6359 -13.1774
upperneck -0.670162 -18.0858 30.822
head 4.31989 -8.95168 10.7953
rclavicle 8.74653e-015 9.44227e-015
rhumerus 37.4085 25.1624 -69.6396
rradius 19.7025
rwrist 25.2221
rhand -31.6885 24.4887
rfingers 7.12502
rthumb -4.94795 -5.43356
lclavicle 8.74653e-015 9.44227e-015
lhumerus 29.5581 -9.68216 76.4671
lradius 19.5783
lwrist -3.94291
lhand -12.7 41.1984
lfingers 7.12502
lthumb 13.3823 70.7486
rfemur -82.9457 -5.10253 18.2775
rtibia 116.658
rfoot 59.5302 24.2523
rtoes 27.022
lfemur -116.853 -8.24233 -25.2696
ltibia 128.724
lfoot -27.6986 -19.7219
ltoes 22.6125
1395
root 6.06443 20.5879 -1.19549 58.9959 203.003 -7.7346
lowerback 14.8185 -1.68468 -6.41033
upperback 8.33773 -3.86718 2.54547
thorax 1.16925 -2.56601 6.81608
lowerneck -0.643852 -12.723 -13.0305
upperneck -0.647205 -18.228 30.8691
head 4.3285 -9.02493 10.7739
rclavicle 2.90226e-014 -3.73218e-014
rhumerus 36.9679 24.4741 -70.3649
rradius 19.4801
rwrist 25.7849
rhand -31.7744 24.6091
rfingers 7.12502
rthumb -5.03091 -5.31117
lclavicle 2.90226e-014 -3.73218e-014
lhumerus 29.6098 -9.85993 76.4966
lradius 19.6241
lwrist -4.05664
lhand -12.3588 40.796
lfingers 7.12502
lthumb 13.7112 70.3243
rfemur -82.9362 -5.22396 18.5941
rtibia 116.581
rfoot 60.0426 23.7422
rtoes 28.3535
lfemur -116.833 -8.18596 -25.1826
ltibia 128.857
lfoot -27.5542 -19.9497
ltoes 22.8687
1396
root 6.09322 20.5702 -1.21176 58.9316 203.258 -7.87352
lowerback 14.7247 -1.77262 -6.61617
upperback 8.35927 -4.00352 2.69242
thorax 1.29542 -2.65257 7.09973
lowerneck -0.618052 -12.6255 -13.6169
upperneck -0.461517 -18.1614 31.0273
head 4.4422 -8.98397 10.9444
rclavicle -2.22639e-014 1.70458e-014
rhumerus 36.9416 24.8098 -70.2968
rradius 19.5019
rwrist 25.6779
rhand -31.6977 24.4782
rfingers 7.12502
rthumb -4.95687 -5.44386
lclavicle -2.22639e-014 1.70458e-014
lhumerus 29.5702 -9.29103 76.7487
lradius 19.5532
lwrist -4.37212
lhand -12.2179 40.5465
lfingers 7.12502
lthumb 13.847 70.0656
rfemur -82.895 -5.2762 18.9326
rtibia 116.548
rfoot 60.4044 23.1067
rtoes 29.034
lfemur -116.84 -8.08083 -25.0882
ltibia 129.053
lfoot -27.5935 -20.0385
ltoes 22.4539
1397
root 6.11913 20.5524 -1.22676 58.8148 203.401 -8.04607
lowerback 15.0172 -1.76546 -7.43087
upperback 8.18415 -4.10006 3.17897
thorax 1.0851 -2.72746 8.13394
lowerneck -0.567255 -12.5584 -14.3045
upperneck -0.139475 -18.1 30.7339
head 4.54292 -8.92501 10.9697
rclavicle -1.98785e-015 -5.13361e-014
rhumerus 36.9154 26.0263 -69.1084
rradius 19.8523
rwrist 24.7196
rhand -31.5388 24.1427
rfingers 7.12502
rthumb -4.80339 -5.78289
lclavicle -1.98785e-015 -5.13361e-014
lhumerus 29.2366 -8.3597 77.6573
lradius 19.3603
lwrist -4.83377
lhand -12.4715 40.5464
lfingers 7.12502
lthumb 13.6026 70.082
rfemur -82.7915 -5.35502 19.234
rtibia 116.517
rfoot 60.5216 23.2221
rtoes 28.5014
lfemur -116.714 -8.02627 -25.0628
ltibia 129.233
lfoot -27.5329 -20.2617
ltoes 22.651
1398
root 6.14626 20.5391 -1.23986 58.7257 203.532 -8.26089
lowerback 14.7656 -1.8281 -7.08092
upperback 8.37425 -4.1396 2.73426
thorax 1.35818 -2.74458 7.42792
lowerneck -0.524297 -12.6092 -13.8822
upperneck -0.0836213 -18.2367 30.9627
head 4.56906 -8.99649 10.9637
rclavicle 7.15625e-014 -6.82825e-014
rhumerus 36.5972 25.3602 -70.1315
rradius 19.6943
rwrist 25.0127
rhand -31.6163 24.0838
rfingers 7.12502
rthumb -4.87823 -5.84007
lclavicle 7.15625e-014 -6.82825e-014
lhumerus 29.5279 -8.99104 76.7651
lradius 19.4553
lwrist -4.4673
lhand -12.7068 40.8833
lfingers 7.12502
lthumb 13.3759 70.4339
rfemur -82.7736 -5.51702 19.6847
rtibia 116.471
rfoot 60.1241 25.2582
rtoes 25.9104
lfemur -116.564 -7.98614 -25.0299
ltibia 129.349
lfoot -27.48 -20.4884
ltoes 22.709
1399
root 6.17537 20.5219 -1.25254 58.7044 203.81 -8.51652
lowerback 14.4548 -1.94029 -6.59934
upperback 8.57497 -4.22573 2.31501
thorax 1.67231 -2.77997 6.67971
lowerneck -0.468047 -12.6559 -13.5309
upperneck -0.103688 -18.3584 31.2684
head 4.58501 -9.06936 11.0011
rclavicle 4.37326e-014 -2.98177e-016
rhumerus 36.3916 24.8008 -71.0505
rradius 19.5513
rwrist 25.2053
rhand -31.7809 24.0656
rfingers 7.12502
rthumb -5.03714 -5.8545
lclavicle 4.37326e-014 -2.98177e-016
lhumerus 29.8535 -9.26326 76.1613
lradius 19.4746
lwrist -4.65843
lhand -12.6196 41.0338
lfingers 7.12502
lthumb 13.4598 70.5789
rfemur -82.7806 -5.73316 20.137
rtibia 116.458
rfoot 59.7667 26.4411
rtoes 24.4067
lfemur -116.516 -7.99701 -24.922
ltibia 129.46
lfoot -27.4928 -20.6689
ltoes 22.6406
